<svg width="400" height="220" viewBox="0 0 400 220" xmlns="http://www.w3.org/2000/svg">
<!--
Pixel Art SVG: "Land In One"
Style: Black fill, Squared/Pixelated letters
Layout: 2 Lines
-->
<g fill="currentColor">
<!-- LINE 1: LAND (Starting at y=40) -->
<!-- L -->
<rect x="40" y="40" width="10" height="50"/>
<rect x="50" y="80" width="30" height="10"/>

<!-- A -->
<rect x="90" y="50" width="10" height="40"/>
<rect x="120" y="50" width="10" height="40"/>
<rect x="100" y="40" width="20" height="10"/>
<rect x="100" y="65" width="20" height="10"/>

<!-- N -->
<rect x="140" y="40" width="10" height="50"/>
<rect x="170" y="40" width="10" height="50"/>
<rect x="150" y="50" width="10" height="10"/>
<rect x="160" y="60" width="10" height="10"/>

<!-- D -->
<rect x="190" y="40" width="10" height="50"/>
<rect x="200" y="40" width="20" height="10"/>
<rect x="200" y="80" width="20" height="10"/>
<rect x="220" y="50" width="10" height="30"/>

<!-- LINE 2: IN ONE (Starting at y=120) -->
<!-- I -->
<rect x="40" y="120" width="30" height="10"/>
<rect x="50" y="130" width="10" height="30"/>
<rect x="40" y="160" width="30" height="10"/>

<!-- N -->
<rect x="80" y="120" width="10" height="50"/>
<rect x="110" y="120" width="10" height="50"/>
<rect x="90" y="130" width="10" height="10"/>
<rect x="100" y="140" width="10" height="10"/>

<!-- Space (Gap) -->

<!-- O -->
<rect x="140" y="120" width="30" height="10"/>
<rect x="140" y="160" width="30" height="10"/>
<rect x="140" y="130" width="10" height="30"/>
<rect x="160" y="130" width="10" height="30"/>

<!-- N -->
<rect x="180" y="120" width="10" height="50"/>
<rect x="210" y="120" width="10" height="50"/>
<rect x="190" y="130" width="10" height="10"/>
<rect x="200" y="140" width="10" height="10"/>

<!-- E -->
<rect x="230" y="120" width="10" height="50"/>
<rect x="240" y="120" width="30" height="10"/>
<rect x="240" y="140" width="20" height="10"/>
<rect x="240" y="160" width="30" height="10"/>
</g>
</svg> 